<?xml version="1.0" encoding="iso-8859-1"?>
<!-- Generator: Adobe Illustrator 19.0.0, SVG Export Plug-In . SVG Version: 6.00 Build 0)  -->
<svg version="1.1" id="Capa_1" xmlns="http://www.w3.org/2000/svg" xmlns:xlink="http://www.w3.org/1999/xlink" x="0px" y="0px"
	 viewBox="0 0 496 496" style="enable-background:new 0 0 496 496;" xml:space="preserve">
<g>
	<g>
		<path d="M448,40v176.936h16V56h16v192h-16v-15.064h-16V248h-16V96h-48v152h-16V120h-48v128h-16V144h-48v104h-16v16h256V40H448z
			 M288,248h-16v-88h16V248z M352,248h-16V136h16V248z M416,248h-16V112h16V248z"/>
	</g>
</g>
<g>
	<g>
		<path d="M336,0v16h24.672c-38.856,54.352-93.584,93.832-155.72,113.6C184.824,99.704,150.672,80,112,80C50.24,80,0,130.24,0,192
			c0,53.512,37.744,98.32,88,109.344V336H72v120c0,22.056,17.944,40,40,40c22.056,0,40-17.944,40-40V336h-16v-34.656
			c50.256-11.024,88-55.832,88-109.344c0-17.288-4.056-33.608-11.08-48.24C278.248,122.232,335.632,80.008,376,22.048V56h16V0H336z
			 M136,456c0,13.232-10.768,24-24,24s-24-10.768-24-24V352h48V456z M104,336v-32.408c2.656,0.192,5.296,0.408,8,0.408
			s5.344-0.216,8-0.408V336H104z M112,288c-52.936,0-96-43.064-96-96c0-52.936,43.064-96,96-96c31.256,0,58.992,15.08,76.528,38.28
			c-5.776,1.488-11.6,2.784-17.48,3.936C156.408,122.16,135.392,112,112,112c-44.112,0-80,35.888-80,80s35.888,80,80,80
			s80-35.888,80-80c0-14.44-3.904-27.968-10.624-39.672c5.392-1.184,10.736-2.488,16.04-3.944C204.136,161.488,208,176.288,208,192
			C208,244.936,164.936,288,112,288z M164.552,155.568C171.752,165.92,176,178.464,176,192c0,35.288-28.712,64-64,64
			c-35.288,0-64-28.712-64-64c0-35.288,28.712-64,64-64c14.744,0,28.304,5.064,39.136,13.472C138.256,143.128,125.192,144,112,144
			v16C129.792,160,147.328,158.408,164.552,155.568z"/>
	</g>
</g>
<g>
	<g>
		<rect x="288" y="304" width="176" height="16"/>
	</g>
</g>
<g>
	<g>
		<rect x="288" y="400" width="176" height="16"/>
	</g>
</g>
<g>
	<g>
		<rect x="288" y="352" width="80" height="16"/>
	</g>
</g>
<g>
	<g>
		<rect x="384" y="352" width="80" height="16"/>
	</g>
</g>
<g>
	<g>
		<rect x="288" y="448" width="80" height="16"/>
	</g>
</g>
<g>
	<g>
		<rect x="384" y="448" width="80" height="16"/>
	</g>
</g>
<g>
	<g>
		<rect x="256" y="304" width="16" height="16"/>
	</g>
</g>
<g>
	<g>
		<rect x="256" y="352" width="16" height="16"/>
	</g>
</g>
<g>
	<g>
		<rect x="256" y="400" width="16" height="16"/>
	</g>
</g>
<g>
	<g>
		<rect x="256" y="448" width="16" height="16"/>
	</g>
</g>
<g>
</g>
<g>
</g>
<g>
</g>
<g>
</g>
<g>
</g>
<g>
</g>
<g>
</g>
<g>
</g>
<g>
</g>
<g>
</g>
<g>
</g>
<g>
</g>
<g>
</g>
<g>
</g>
<g>
</g>
</svg>
