<svg height="512" viewBox="0 0 64 64" width="512" xmlns="http://www.w3.org/2000/svg"><g id="Planning-paper-document-smartphone-pen"><path d="m61 20h-4v-5a1 1 0 0 0 -1-1h-7v-9a3.009 3.009 0 0 0 -3-3h-18a3.009 3.009 0 0 0 -3 3v9h-9.08a7 7 0 0 0 -13.92 1v40a7.008 7.008 0 0 0 7 7h52a1 1 0 0 0 1-1v-40a1 1 0 0 0 -1-1zm-12-4h6v4h-6zm-22 20h14v-2h-14v-29a1 1 0 0 1 1-1h18a1 1 0 0 1 1 1v29h-4v2h4v3a1 1 0 0 1 -1 1h-18a1 1 0 0 1 -1-1zm-11-20h9v4h-9zm-12-1a5 5 0 0 1 10 0v35.11a6.979 6.979 0 0 0 -10 0zm56 45h-51a5 5 0 1 1 5-5 1 1 0 0 0 2 0v-33h9v17a3.009 3.009 0 0 0 3 3h18a3.009 3.009 0 0 0 3-3v-17h11z"/><path d="m54 46h-9a1 1 0 0 0 -1 1h-19a1.185 1.185 0 0 0 -.32.05l-6 2a1 1 0 0 0 0 1.9l6 2a1.185 1.185 0 0 0 .32.05h19a1 1 0 0 0 1 1h8v2h-9v2h10a1 1 0 0 0 1-1v-3.14a3.993 3.993 0 0 0 -1-7.86zm-10 5h-18.84l-3-1 3-1h18.84zm10 1h-8v-4h8a2 2 0 0 1 0 4z"/><path d="m37 9a8 8 0 1 0 8 8 8.011 8.011 0 0 0 -8-8zm1 2.09a5.992 5.992 0 0 1 4.91 4.91h-4.91zm-1 11.91a6 6 0 0 1 -1-11.91v5.91a1 1 0 0 0 1 1h5.91a6.007 6.007 0 0 1 -5.91 5z"/><path d="m51 2h2v2h-2z"/><path d="m55 2h7v2h-7z"/><path d="m51 6h2v2h-2z"/><path d="m55 6h7v2h-7z"/><path d="m51 10h2v2h-2z"/><path d="m55 10h7v2h-7z"/></g></svg>