<svg height="512" viewBox="0 0 64 64" width="512" xmlns="http://www.w3.org/2000/svg"><g id="coin"><path d="m59 15h-15v-10a3 3 0 0 0 -3-3h-36a3 3 0 0 0 -3 3v54a3 3 0 0 0 3 3h36a3 3 0 0 0 3-3v-4h15a3 3 0 0 0 3-3v-34a3 3 0 0 0 -3-3zm-51-11h8v12.919l-3.375-2.7a1 1 0 0 0 -1.25 0l-3.375 2.7zm34 55a1 1 0 0 1 -1 1h-36a1 1 0 0 1 -1-1v-54a1 1 0 0 1 1-1h1v15a1 1 0 0 0 1.625.781l4.375-3.5 4.375 3.5a1 1 0 0 0 1.625-.781v-15h23a1 1 0 0 1 1 1v10h-7a3 3 0 0 0 -3 3v34a3 3 0 0 0 3 3h7zm18-7a1 1 0 0 1 -1 1h-24a1 1 0 0 1 -1-1v-34a1 1 0 0 1 1-1h24a1 1 0 0 1 1 1z"/><path d="m53 19h-12a5.006 5.006 0 0 0 -5 5v4a5.006 5.006 0 0 0 5 5h12a5.006 5.006 0 0 0 5-5v-4a5.006 5.006 0 0 0 -5-5zm3 9a3 3 0 0 1 -3 3h-12a3 3 0 0 1 -3-3v-4a3 3 0 0 1 3-3h12a3 3 0 0 1 3 3z"/><path d="m40.5 35h-2a2.5 2.5 0 0 0 -2.5 2.5v2a2.5 2.5 0 0 0 2.5 2.5h2a2.5 2.5 0 0 0 2.5-2.5v-2a2.5 2.5 0 0 0 -2.5-2.5zm.5 4.5a.5.5 0 0 1 -.5.5h-2a.5.5 0 0 1 -.5-.5v-2a.5.5 0 0 1 .5-.5h2a.5.5 0 0 1 .5.5z"/><path d="m40.5 44h-2a2.5 2.5 0 0 0 -2.5 2.5v2a2.5 2.5 0 0 0 2.5 2.5h2a2.5 2.5 0 0 0 2.5-2.5v-2a2.5 2.5 0 0 0 -2.5-2.5zm.5 4.5a.5.5 0 0 1 -.5.5h-2a.5.5 0 0 1 -.5-.5v-2a.5.5 0 0 1 .5-.5h2a.5.5 0 0 1 .5.5z"/><path d="m48.5 35h-2a2.5 2.5 0 0 0 -2.5 2.5v2a2.5 2.5 0 0 0 2.5 2.5h2a2.5 2.5 0 0 0 2.5-2.5v-2a2.5 2.5 0 0 0 -2.5-2.5zm.5 4.5a.5.5 0 0 1 -.5.5h-2a.5.5 0 0 1 -.5-.5v-2a.5.5 0 0 1 .5-.5h2a.5.5 0 0 1 .5.5z"/><path d="m48.5 44h-2a2.5 2.5 0 0 0 -2.5 2.5v2a2.5 2.5 0 0 0 2.5 2.5h2a2.5 2.5 0 0 0 2.5-2.5v-2a2.5 2.5 0 0 0 -2.5-2.5zm.5 4.5a.5.5 0 0 1 -.5.5h-2a.5.5 0 0 1 -.5-.5v-2a.5.5 0 0 1 .5-.5h2a.5.5 0 0 1 .5.5z"/><path d="m57 42h-4a1 1 0 0 0 -1 1v7a1 1 0 0 0 1 1h4a1 1 0 0 0 1-1v-7a1 1 0 0 0 -1-1zm-1 7h-2v-5h2z"/><path d="m52 22h-2a2 2 0 0 0 -2 2v4a2 2 0 0 0 2 2h2a2 2 0 0 0 2-2v-4a2 2 0 0 0 -2-2zm-2 6v-4h2v4z"/><path d="m57 35h-4a1 1 0 0 0 -1 1v3a1 1 0 0 0 1 1h4a1 1 0 0 0 1-1v-3a1 1 0 0 0 -1-1zm-1 3h-2v-1h2z"/><path d="m38 6h2v2h-2z"/><path d="m28 6h8v2h-8z"/><path d="m32 10h8v2h-8z"/><path d="m20 6h6v2h-6z"/><path d="m20 10h10v2h-10z"/><path d="m6 22h24v2h-24z"/><path d="m6 26h24v2h-24z"/><path d="m6 50h24v2h-24z"/><path d="m6 54h24v2h-24z"/><path d="m18 30a8.955 8.955 0 0 0 -5.644 2h-6.356v2h4.522a9 9 0 0 0 -1 2h-3.522v2h3.059a8.5 8.5 0 0 0 0 2h-3.059v2h3.525a9 9 0 0 0 1 2h-4.525v2h6.356a8.964 8.964 0 0 0 11.288 0h6.356v-2h-4.522a9 9 0 0 0 1-2h3.522v-2h-3.059a8.5 8.5 0 0 0 0-2h3.059v-2h-3.525a9 9 0 0 0 -1-2h4.525v-2h-6.356a8.955 8.955 0 0 0 -5.644-2zm0 16a7 7 0 1 1 7-7 7.008 7.008 0 0 1 -7 7z"/><path d="m19 33h-2v1a2 2 0 0 0 -2 2v2a2 2 0 0 0 2 2h2v2h-4v2h2v1h2v-1a2 2 0 0 0 2-2v-2a2 2 0 0 0 -2-2h-2v-2h4v-2h-2z"/></g></svg>