<svg id="Capa_1" enable-background="new 0 0 512 512" height="512" viewBox="0 0 512 512" width="512" xmlns="http://www.w3.org/2000/svg"><g><path d="m198.938 342.74c-1.304-3.912.794-8.136 4.706-9.468 3.94-1.304 8.164.822 9.468 4.734 3.061 9.071 8.901 16.866 16.526 22.365 7.398 5.301 16.498 8.447 26.363 8.447s18.964-3.146 26.363-8.447c7.625-5.499 13.493-13.295 16.526-22.365 1.304-3.912 5.556-6.037 9.468-4.734 3.912 1.332 6.038 5.556 4.706 9.468-4.054 12.104-11.821 22.45-21.969 29.764-9.893 7.115-22.025 11.31-35.093 11.31s-25.172-4.195-35.093-11.31c-10.15-7.314-17.917-17.66-21.971-29.764zm233.181-203.414-27.95-9.468-17.887 8.73v7.965c0 6.293 2.58 12.019 6.747 16.186 4.168 4.167 9.893 6.747 16.186 6.747s12.019-2.58 16.186-6.747c4.139-4.167 6.718-9.893 6.718-16.186zm-45.837-17.348 13.635-6.69c1.814-1.049 4.025-1.332 6.151-.595l26.051 8.816v-9.553c0-2.608-1.049-4.989-2.778-6.718-1.757-1.729-4.138-2.806-6.746-2.806h-26.788c-2.608 0-4.989 1.077-6.718 2.806s-2.806 4.11-2.806 6.718v8.022zm-306.4-5.698h45.837v-11.849h-36.313c-2.608 0-4.989 1.077-6.718 2.806s-2.807 4.11-2.807 6.718v2.325zm45.837 14.995h-45.837v15.279c0 6.293 2.58 12.019 6.747 16.186 4.139 4.167 9.893 6.747 16.186 6.747s12.019-2.58 16.186-6.747c4.139-4.167 6.719-9.893 6.719-16.186v-15.279zm153.214-34.61c-8.277.851-20.296.085-30.671-8.447-3.685 1.956-8.929 3.883-15.165 3.798v11.821c0 6.321 2.58 12.047 6.718 16.186 4.167 4.167 9.893 6.747 16.186 6.747s12.019-2.58 16.186-6.747c4.167-4.139 6.747-9.864 6.747-16.186v-7.172zm-45.837-19.588c6.52.227 10.999-3.94 11.027-3.968l.142-.114c3.118-2.693 7.824-2.353 10.545.766 7.625 8.759 18.028 8.844 24.123 7.909v-10.432c0-2.608-1.077-4.989-2.806-6.718-1.73-1.729-4.111-2.806-6.719-2.806h-26.787c-2.608 0-4.989 1.077-6.719 2.806-1.757 1.729-2.806 4.11-2.806 6.718zm-92.382 69.477c0 6.917-1.871 13.437-5.13 19.049 7.568 1.248 14.343 4.904 19.559 10.12 6.549 6.548 10.631 15.591 10.631 25.569v12.189l2.041-2.041c.312-.34.652-.595.992-.851 2.438-1.927 5.103-2.919 7.965-2.948 3.118-.028 6.01 1.134 8.674 3.515.113.085.198.199.311.284l7.285 7.257v-60.123c0-9.95 4.054-18.992 10.63-25.568 5.216-5.216 11.991-8.844 19.559-10.12-3.26-5.613-5.159-12.104-5.159-19.049v-32.599c0-6.747 2.778-12.869 7.2-17.32 4.45-4.45 10.573-7.2 17.349-7.2h26.787c6.747 0 12.87 2.75 17.32 7.2 4.45 4.451 7.2 10.573 7.2 17.32v32.599c0 6.945-1.871 13.436-5.159 19.049 7.568 1.275 14.372 4.904 19.587 10.12 6.548 6.576 10.63 15.619 10.63 25.568v60.123l7.257-7.257c.312-.34.652-.624 1.021-.851 2.466-2.013 5.13-2.976 7.994-2.948 3.089.028 5.924 1.19 8.532 3.43.113.113.255.255.397.369l2.04 2.041v-12.189c0-9.978 4.082-19.021 10.631-25.569 5.215-5.215 12.018-8.872 19.587-10.12-3.288-5.612-5.159-12.132-5.159-19.049v-32.598c0-6.747 2.75-12.898 7.2-17.32 4.451-4.45 10.573-7.2 17.32-7.2h26.788c6.774 0 12.898 2.75 17.348 7.2 4.422 4.422 7.2 10.573 7.2 17.32v32.598c0 6.917-1.899 13.437-5.159 19.049 7.569 1.248 14.343 4.904 19.559 10.12 6.577 6.548 10.63 15.591 10.63 25.569v40.11c5.84 4.536 12.785 12.586 18.256 18.028 2.041 2.041 3.175 4.904 3.175 7.795-.028 2.892-1.276 6.123-3.345 8.192l-5.868 5.868c1.729 2.948 3.203 6.151 4.507 9.411 1.304 3.288 2.409 6.576 3.345 9.666h8.589c2.92 0 5.897 1.077 7.994 3.175 2.269 2.239 3.175 5.272 3.175 8.334v23.782c0 2.977-1.077 5.925-3.175 8.023-2.211 2.211-5.272 3.175-8.305 3.175h-8.277c-.936 3.09-2.041 6.378-3.345 9.666-1.304 3.26-2.778 6.463-4.507 9.411l6.038 6.038c1.956 1.956 3.147 5.329 3.175 8.022 0 2.778-.935 5.272-2.892 7.455-.085.113-.198.227-.283.312v.028l-17.064 17.036c-4.876 4.876-11.169 4.621-15.96-.142l-5.924-5.924c-3.288 1.814-6.293 3.232-9.411 4.479-3.033 1.219-6.094 2.239-9.61 3.345v8.646c0 2.976-1.077 5.981-3.203 8.079-2.069 2.069-4.734 3.09-7.994 3.061v.057h-24.094c-3.005 0-5.897-.992-8.051-3.118-2.211-2.211-3.147-5.301-3.147-8.306v-8.419c-3.543-1.105-6.576-2.126-9.609-3.345-1.587-.652-3.146-1.332-4.734-2.069.085.595.142 1.219.142 1.843.028 3.316-1.333 6.52-3.657 8.844l-23.925 23.953c-2.268 2.268-5.726 3.742-8.929 3.77-3.43.028-6.803-1.587-9.185-3.941l-10.006-10.035c-5.386 3.09-10.063 5.329-14.939 7.285-4.79 1.928-9.609 3.487-15.477 5.301v14.428c0 3.374-1.162 6.803-3.572 9.213-2.324 2.296-5.358 3.458-9.1 3.43v.028h-33.931c-3.402 0-6.69-1.049-9.128-3.458-2.438-2.438-3.572-5.953-3.572-9.326v-14.315l-.113-.028c-5.811-1.786-10.602-3.373-15.335-5.272-4.876-1.956-9.581-4.195-14.967-7.285l-10.177 10.205c-2.296 2.296-5.725 3.798-8.986 3.77-3.118-.028-5.953-1.191-8.532-3.43-.142-.113-.283-.255-.397-.368l-.028.028-23.981-24.01c-2.296-2.296-3.6-5.527-3.6-8.787.028-.624.057-1.248.17-1.843-1.587.737-3.146 1.417-4.734 2.069-3.033 1.219-6.095 2.239-9.638 3.345v8.646c0 2.948-1.021 5.953-3.146 8.079-2.069 2.069-4.734 3.09-8.023 3.061v.057h-24.123c-2.977 0-5.839-.992-7.994-3.118-2.041-2.041-3.09-4.677-3.146-7.965v-.113h-.029v-8.646c-3.544-1.105-6.605-2.126-9.61-3.345-3.118-1.247-6.123-2.665-9.439-4.479l-6.066 6.066c-4.762 4.734-10.403 4.677-15.421.34-.113-.113-.255-.227-.369-.369l-.028.028-17.036-17.036c-2.041-2.041-3.203-4.904-3.175-7.795 0-2.381.794-4.706 2.296-6.917.255-.397.567-.765.878-1.105l6.01-6.038c-1.701-2.948-3.203-6.151-4.507-9.411-1.304-3.288-2.409-6.576-3.316-9.666h-8.589c-2.948 0-5.925-1.077-7.994-3.175-2.041-2.013-3.09-4.649-3.175-7.88v-.142h-.029v-24.094c0-2.977 1.078-5.924 3.204-8.022 2.097-2.098 5.13-3.175 8.022-3.175h8.561c.907-3.09 2.013-6.378 3.316-9.666 1.304-3.26 2.806-6.463 4.507-9.411l-6.01-6.038c-1.927-1.899-3.175-5.386-3.175-8.022-.028-2.891 1.134-5.754 3.203-7.824l17.008-17.008c.397-.396.766-.652 1.191-.992v-40.11c0-9.978 4.082-19.021 10.63-25.569 5.216-5.215 11.99-8.872 19.587-10.12-3.288-5.612-5.159-12.132-5.159-19.049v-22.79-9.808c0-6.747 2.749-12.898 7.2-17.32 4.45-4.45 10.574-7.2 17.32-7.2h43.824c4.139 0 7.483 3.345 7.483 7.484v26.844 22.79zm-20.239 33.534c-5.301 2.806-11.31 4.394-17.66 4.394-6.378 0-12.388-1.587-17.66-4.394h-9.128c-5.811 0-11.112 2.381-14.967 6.236-3.827 3.855-6.236 9.128-6.236 14.967v41.499l5.698 5.67c3.316-1.815 6.321-3.232 9.439-4.479 3.004-1.219 6.066-2.239 9.61-3.345v-8.645c0-.369.028-.709.085-1.077.227-2.835 1.275-5.188 3.09-7.002 2.098-2.069 4.762-3.089 7.994-3.061v-.028h24.122c2.977 0 5.897.963 8.023 3.089 2.183 2.183 3.146 5.301 3.146 8.277v8.447c3.543 1.105 6.604 2.126 9.638 3.345 1.587.652 3.146 1.333 4.734 2.069-.114-.595-.142-1.219-.17-1.842 0-3.146 1.077-5.953 3.289-8.447.113-.113.198-.227.312-.34l6.945-6.945v-27.184c0-5.839-2.381-11.112-6.236-14.967s-9.156-6.236-14.967-6.236h-9.101zm306.4 0c-5.273 2.806-11.311 4.394-17.66 4.394-6.378 0-12.387-1.587-17.66-4.394h-9.128c-5.811 0-11.112 2.381-14.967 6.236-3.827 3.855-6.208 9.128-6.208 14.967v27.184l6.945 6.945c2.296 2.296 3.6 5.528 3.572 8.788 0 .624-.057 1.247-.142 1.842 1.587-.737 3.146-1.417 4.734-2.069 3.033-1.219 6.066-2.239 9.609-3.345 0-2.778-.283-7.115.086-9.723.227-2.835 1.247-5.188 3.061-7.002 2.069-2.069 4.762-3.089 8.051-3.061v-.028h24.094c2.977 0 5.868.963 7.994 3.089 2.041 2.041 3.09 4.677 3.175 7.965v.114h.028v8.645c3.516 1.105 6.577 2.126 9.61 3.345 3.118 1.247 6.123 2.664 9.411 4.479l5.698-5.67v-41.499c0-5.839-2.381-11.112-6.236-14.967-3.827-3.855-9.127-6.236-14.967-6.236h-9.1zm-153.215-42.69c-5.272 2.778-11.282 4.365-17.66 4.365-6.406 0-12.444-1.587-17.745-4.422l-9.015.057c-5.839 0-11.14 2.381-14.967 6.208-3.855 3.855-6.236 9.156-6.236 14.967v56.948c.936-.397 1.899-.794 2.863-1.191 4.762-1.899 9.609-3.486 15.449-5.301v-14.428c0-3.373 1.162-6.803 3.572-9.212 2.324-2.296 5.386-3.459 9.128-3.43v-.028h33.931c3.373 0 6.662 1.049 9.1 3.459 2.296 2.296 3.487 5.329 3.543 9.099v.113h.028v14.428l.113.028c5.811 1.786 10.63 3.373 15.364 5.272.964.397 1.899.794 2.835 1.191v-56.948c0-5.811-2.381-11.112-6.208-14.967-3.855-3.827-9.156-6.208-14.967-6.208zm120.616 212.174c.651.369 1.304.708 1.956 1.049 3.912 1.871 8.306 2.919 12.982 2.919 8.249 0 15.733-3.345 21.147-8.759 5.443-5.414 8.788-12.898 8.788-21.175s-3.345-15.761-8.788-21.175c-5.414-5.414-12.897-8.759-21.147-8.759-4.677 0-9.071 1.049-12.982 2.92-.652.34-1.333.68-1.984 1.049 2.211 2.268 3.345 5.216 3.401 8.844v.142h.029v33.959c0 3.26-1.106 6.604-3.402 8.986zm-18.794-55.616c3.968-4.507 8.815-8.192 14.258-10.829 5.924-2.863 12.529-4.45 19.474-4.45 12.388 0 23.642 5.017 31.777 13.153 8.107 8.135 13.153 19.36 13.153 31.776s-5.045 23.641-13.153 31.776c-8.135 8.135-19.389 13.153-31.777 13.153-6.945 0-13.55-1.587-19.474-4.451-5.443-2.636-10.29-6.321-14.258-10.828h-4.876c-1.389 4.96-3.118 10.261-5.215 15.562-2.098 5.188-4.536 10.29-7.37 14.854l1.531 1.531c1.644-1.134 3.515-1.814 5.471-2.013 2.58-.283 5.272.227 7.597 1.559 3.487 2.013 6.406 3.43 9.298 4.592 2.976 1.19 6.094 2.211 9.836 3.373 2.523.652 5.046 2.353 6.662 4.365 1.672 2.126 2.551 4.677 2.551 7.37v6.945h16.469v-6.945h.028c-.028-2.891.964-5.386 2.551-7.37 1.644-2.069 3.968-3.543 6.293-4.28v.028l.028-.028c3.912-1.19 7.086-2.239 10.148-3.458 2.919-1.162 5.811-2.58 9.326-4.592 2.324-1.332 5.017-1.842 7.597-1.559 2.381.255 4.706 1.219 6.576 2.892.199.17.397.34.567.51l4.904 4.932 11.651-11.65-4.905-4.932h.028c-1.871-1.843-3.203-4.422-3.515-7.228-.284-2.551.227-5.273 1.871-7.795 1.672-2.665 3.147-5.726 4.423-8.929 1.304-3.232 2.409-6.718 3.345-10.063.652-2.296 2.268-4.733 4.365-6.406 2.041-1.616 4.706-2.664 7.342-2.664h6.945v-16.498h-6.945v-.028c-2.806.028-5.358-1.049-7.342-2.636-2.098-1.672-3.713-4.11-4.365-6.406-.936-3.345-2.041-6.831-3.345-10.063-1.276-3.203-2.751-6.265-4.423-8.929-1.644-2.523-2.154-5.244-1.871-7.795.312-2.664 1.587-5.329 3.486-7.228l4.905-4.933-11.651-11.65-4.904 4.933v-.028c-1.984 2.012-4.507 3.147-7.143 3.43-2.58.284-5.272-.227-7.597-1.559-3.515-2.013-6.407-3.43-9.326-4.592-2.977-1.191-6.067-2.211-9.809-3.373-2.523-.652-5.045-2.353-6.661-4.365-1.701-2.126-2.58-4.677-2.58-7.37v-6.945h-16.469v6.945h-.028c.057 2.891-.936 5.386-2.523 7.37-1.644 2.069-3.969 3.544-6.322 4.28v-.028l-.028.028c-3.883 1.19-7.086 2.239-10.148 3.458-2.892 1.162-5.811 2.579-9.298 4.592-2.324 1.333-5.017 1.843-7.597 1.559-1.956-.198-3.827-.878-5.471-2.013l-1.531 1.531c2.835 4.564 5.272 9.666 7.37 14.854 2.098 5.301 3.827 10.602 5.215 15.562h4.879zm-223.033-31.947c-1.644 1.134-3.515 1.814-5.471 2.013-2.551.284-5.244-.227-7.568-1.559-3.515-2.013-6.406-3.43-9.326-4.592-2.976-1.191-6.066-2.211-9.808-3.373-.142-.028-.255-.057-.369-.085-2.353-.737-4.649-2.211-6.322-4.28-1.446-1.842-2.41-4.082-2.523-6.69 0-.227-.028-.453-.028-.68v-6.945h-16.469v6.945h-.028c.057 2.891-.936 5.386-2.523 7.37-1.672 2.069-3.968 3.544-6.321 4.28v-.028l-.028.028c-3.883 1.19-7.087 2.239-10.148 3.458-2.891 1.162-5.811 2.579-9.297 4.592-2.353 1.333-5.046 1.843-7.597 1.559-2.409-.255-4.706-1.219-6.576-2.891-.199-.171-.397-.34-.595-.51l-4.904-4.933-11.651 11.65 4.904 4.933c1.871 1.842 3.175 4.422 3.487 7.228.284 2.551-.226 5.273-1.842 7.795-1.701 2.665-3.175 5.726-4.451 8.929-1.275 3.232-2.409 6.718-3.345 10.063-.624 2.296-2.267 4.734-4.365 6.406-2.041 1.644-4.706 2.664-7.342 2.664h-6.945v16.498h6.945v.028c2.834-.028 5.386 1.077 7.342 2.636 2.098 1.673 3.742 4.11 4.365 6.406.936 3.345 2.069 6.831 3.345 10.063 1.276 3.204 2.75 6.265 4.451 8.929 1.616 2.523 2.126 5.244 1.842 7.795-.283 2.664-1.559 5.329-3.487 7.228l-4.904 4.932 11.651 11.65 4.904-4.932.028.028c1.956-1.984 4.507-3.147 7.143-3.43 2.551-.283 5.244.227 7.597 1.559 3.486 2.013 6.406 3.43 9.297 4.592 2.977 1.19 6.067 2.211 9.837 3.373 2.494.652 5.045 2.353 6.661 4.365 1.672 2.126 2.551 4.677 2.551 7.37v6.945h16.469v-6.945h.028c-.057-2.891.935-5.386 2.523-7.37 1.672-2.069 3.969-3.543 6.322-4.28v.028l.028-.028c3.912-1.19 7.087-2.239 10.148-3.458 2.92-1.162 5.811-2.58 9.326-4.592 2.324-1.332 5.017-1.842 7.568-1.559 1.956.199 3.827.879 5.471 2.013l1.531-1.531c-2.835-4.564-5.273-9.666-7.342-14.854-2.126-5.301-3.827-10.602-5.244-15.562h-4.876c-4.053 4.592-9.014 8.362-14.57 10.998-5.84 2.75-12.331 4.281-19.134 4.281-12.416 0-23.642-5.018-31.777-13.153-8.136-8.136-13.153-19.361-13.153-31.776 0-12.416 5.017-23.641 13.153-31.776 8.135-8.136 19.361-13.153 31.777-13.153 6.803 0 13.294 1.531 19.134 4.28 5.556 2.636 10.517 6.406 14.57 10.999h4.876c1.417-4.961 3.118-10.262 5.244-15.562 2.069-5.188 4.507-10.29 7.342-14.854zm-34.696 35.632c-.709-.397-1.446-.794-2.183-1.134-3.855-1.814-8.164-2.834-12.756-2.834-8.277 0-15.761 3.345-21.175 8.759-5.415 5.414-8.76 12.897-8.76 21.175 0 8.277 3.345 15.761 8.76 21.175 5.414 5.414 12.897 8.759 21.175 8.759 4.592 0 8.9-1.021 12.756-2.834.737-.34 1.445-.737 2.154-1.134-2.154-2.239-3.288-5.188-3.373-8.844v-.142h-.028v-33.959c0-3.261 1.134-6.606 3.43-8.987zm45.865-60.803-.085.085-7.484 7.483 9.1 9.071h-.028c2.183 2.154 3.685 5.131 4.054 8.362.312 2.948-.255 6.095-2.126 9.014-2.495 3.912-4.677 8.391-6.52 13.068-1.9 4.706-3.487 9.694-4.819 14.485-.737 2.636-2.636 5.471-5.103 7.455-2.353 1.871-5.414 3.09-8.447 3.09h-12.841v29.31h12.841v.028c3.231 0 6.151 1.247 8.447 3.09 2.466 1.956 4.365 4.79 5.103 7.427 1.332 4.79 2.919 9.78 4.819 14.485 1.842 4.677 4.025 9.156 6.52 13.067 1.871 2.92 2.438 6.066 2.126 9.014-.34 2.977-1.644 5.754-3.572 7.852-.142.17-.283.34-.454.51l-9.1 9.071 20.75 20.749 9.071-9.099.028.028c2.239-2.296 5.187-3.628 8.22-3.968 3.005-.34 6.124.283 8.845 1.842 5.045 2.892 9.241 4.933 13.493 6.633 4.309 1.729 8.788 3.203 14.202 4.876.113.028.227.057.369.113 2.749.851 5.443 2.551 7.399 4.989 1.701 2.154 2.806 4.79 2.891 7.852.028.227.028.425.028.624v12.841h29.311v-12.841h.028c-.057-3.317 1.077-6.18 2.919-8.476 1.928-2.438 4.649-4.139 7.399-4.989h.028c5.556-1.729 10.12-3.231 14.542-4.989 4.224-1.701 8.447-3.742 13.493-6.633 2.693-1.559 5.84-2.183 8.816-1.842 2.834.34 5.556 1.474 7.738 3.486.17.142.34.312.51.454l9.1 9.099 20.721-20.749-1.843-1.842-7.228-7.228c-2.154-2.154-3.685-5.131-4.054-8.362-.312-2.948.284-6.094 2.154-9.014 2.495-3.912 4.649-8.39 6.52-13.067 1.871-4.706 3.459-9.695 4.819-14.485.738-2.636 2.637-5.471 5.103-7.427 2.353-1.899 5.386-3.118 8.419-3.118h12.841v-29.31h-12.841v-.028c-3.203 0-6.151-1.247-8.419-3.09-2.466-1.956-4.365-4.79-5.103-7.427-1.36-4.791-2.948-9.779-4.819-14.485-1.871-4.677-4.025-9.156-6.52-13.068-1.871-2.919-2.466-6.066-2.154-9.014.34-2.977 1.672-5.754 3.572-7.852.142-.17.312-.34.482-.51l9.071-9.071-7.483-7.483-.057-.085-13.181-13.181-9.1 9.099v-.028c-2.268 2.296-5.187 3.629-8.249 3.969-3.827.425-6.52-.539-9.752-2.381-4.337-2.183-7.994-4.252-12.557-6.094-4.337-1.73-8.788-3.203-14.202-4.876-2.948-.765-5.897-2.749-7.768-5.102-1.729-2.154-2.834-4.791-2.919-7.852 0-.227-.028-.425-.028-.623v-12.841h-29.311v12.841h-.028c.057 3.316-1.077 6.179-2.891 8.476-1.956 2.438-4.649 4.138-7.399 5.017l-.028-.028v.028c-5.584 1.701-10.148 3.203-14.542 4.961-3.798 1.53-7.597 3.316-11.962 5.754-3.203 2.013-6.52 3.146-10.376 2.722-2.834-.312-5.556-1.474-7.738-3.487-.171-.142-.34-.312-.51-.454l-9.071-9.099zm149.444 67.635c1.332 3.912-.794 8.135-4.706 9.468-3.912 1.304-8.164-.822-9.468-4.734-3.033-9.071-8.901-16.866-16.526-22.365-7.371-5.301-16.498-8.447-26.363-8.447s-18.964 3.146-26.363 8.447c-7.625 5.5-13.464 13.295-16.526 22.365-1.304 3.912-5.527 6.038-9.468 4.734-3.912-1.332-6.009-5.556-4.706-9.468 4.054-12.076 11.821-22.451 21.969-29.764 9.921-7.115 22.025-11.31 35.093-11.31s25.201 4.195 35.093 11.31c10.151 7.313 17.918 17.688 21.971 29.764z"/></g></svg>